<!DOCTYPE svg PUBLIC "-//W3C//DTD SVG 1.1//EN" "http://www.w3.org/Graphics/SVG/1.1/DTD/svg11.dtd">
<!-- Uploaded to: SVG Repo, www.svgrepo.com, Transformed by: SVG Repo Mixer Tools -->
<svg fill="#fff70a" height="800px" width="800px" version="1.1" id="Capa_1" xmlns="http://www.w3.org/2000/svg" xmlns:xlink="http://www.w3.org/1999/xlink" viewBox="0 0 488.585 488.585" xml:space="preserve" stroke="#fff70a">
<g id="SVGRepo_bgCarrier" stroke-width="0"/>
<g id="SVGRepo_tracerCarrier" stroke-linecap="round" stroke-linejoin="round"/>
<g id="SVGRepo_iconCarrier"> <g> <path d="M300.263,67.757c5.809-37.543-17.141-58.121-30.785-66.805c-1.883-1.199-4.281-1.27-6.246-0.191 c-1.945,1.078-3.168,3.137-3.168,5.375v42.641c-5.133-0.934-10.363-1.59-15.769-1.59c-5.41,0-10.637,0.656-15.773,1.59V6.136 c0-2.238-1.223-4.297-3.168-5.375c-1.965-1.078-4.363-1.008-6.246,0.191c-13.645,8.684-36.59,29.262-30.781,66.805 c-19.473,16.148-32.137,40.199-32.168,67.469c25.957-15.578,56.016-24.645,88.137-24.645c32.117,0,62.18,9.066,88.137,24.645 C332.396,107.956,319.732,83.906,300.263,67.757z"/> <path d="M126.048,208.679c-34.246-8.828-47.73-36.547-49.691-41.004c-3.59-8.305-13.23-12.133-21.582-8.625 c-8.367,3.563-12.277,13.242-8.703,21.609c8.125,19.109,29.414,45.801,64.77,57.563c-6.309,16.738-9.785,34.953-9.848,54.016 c-39.57,2.188-74.363,9.703-81.426,11.313c-8.883,2.012-14.438,10.828-12.441,19.703c2.012,8.883,10.863,14.453,19.715,12.434 c16.25-3.672,46.375-8.797,77.191-10.492c3.621,20.719,10.43,42.152,19.813,62.516c-26.957,16.078-46.301,38.816-47.715,40.504 c-5.824,6.977-4.891,17.348,2.074,23.188c3.074,2.594,6.824,3.855,10.574,3.855c4.699,0,9.367-2.004,12.633-5.883 c6.902-8.207,21.387-22.527,37.992-32.73c22.641,36.289,53.602,64.898,88.41,71.941V144.597 C185.525,149.644,148.947,173.894,126.048,208.679z"/> <path d="M469.021,303.55c-7.066-1.609-41.875-9.133-81.426-11.328c-0.066-19.055-3.543-37.27-9.852-54 c35.355-11.762,56.645-38.453,64.773-57.563c3.57-8.367-0.34-18.047-8.707-21.609c-8.367-3.547-18.07,0.328-21.613,8.723 c-0.77,1.793-14,31.531-49.723,40.801c-22.898-34.727-59.461-58.938-101.703-63.977v343.988 c34.809-7.043,65.77-35.66,88.426-71.957c16.59,10.211,31.074,24.539,37.977,32.746c3.27,3.879,7.934,5.883,12.633,5.883 c3.734,0,7.5-1.262,10.574-3.855c6.969-5.84,7.902-16.211,2.074-23.188c-1.414-1.688-20.758-24.426-47.711-40.504 c9.379-20.363,16.188-41.797,19.809-62.508c30.816,1.688,60.941,6.813,77.195,10.484c8.816,2.027,17.684-3.551,19.711-12.434 C483.455,314.378,477.904,305.562,469.021,303.55z"/> </g> </g>
</svg>